<?xml version="1.0" encoding="utf-8"?>
<!-- Generator: Adobe Illustrator 24.2.3, SVG Export Plug-In . SVG Version: 6.00 Build 0)  -->
<svg version="1.1" id="Layer_1" xmlns="http://www.w3.org/2000/svg" xmlns:xlink="http://www.w3.org/1999/xlink" x="0px" y="0px"
	 viewBox="0 0 600 600" style="enable-background:new 0 0 600 600;" xml:space="preserve">
<g>
	<path d="M437.6,195.9c-3.2-8.2-7-14.1-13.2-20.3c-6.2-6.2-12.1-10-20.3-13.2c-6.3-2.4-15.6-5.3-32.8-6.1c-18.6-0.8-24.2-1-71.3-1
		c-5.9,0-11.1,0-15.8,0c-32.9,0-39.2,0.2-55.5,1c-17.2,0.8-26.6,3.7-32.8,6.1c-8.2,3.2-14.1,7-20.3,13.2c-6.2,6.2-10,12.1-13.2,20.3
		c-2.4,6.3-5.3,15.6-6.1,32.8c-0.8,18.6-1,24.2-1,71.3c0,47.1,0.2,52.7,1,71.3c0.8,17.2,3.7,26.6,6.1,32.8c3.2,8.2,7,14.1,13.2,20.3
		c6.2,6.2,12.1,10,20.3,13.2c6.3,2.4,15.6,5.3,32.8,6.1c18.6,0.8,24.2,1,71.3,1s52.7-0.2,71.3-1c17.2-0.8,26.6-3.7,32.8-6.1
		c8.3-3.2,14.1-7,20.3-13.2s10-12.1,13.2-20.3c2.4-6.3,5.3-15.6,6.1-32.8c0.8-18.6,1-24.2,1-71.3s-0.2-52.7-1-71.3
		C442.9,211.5,440,202.1,437.6,195.9z M300,390.6c-50,0-90.6-40.5-90.6-90.6c0-50,40.5-90.6,90.6-90.6c50.1,0,90.6,40.5,90.6,90.6
		C390.6,350,350.1,390.6,300,390.6z M394.2,227c-11.7,0-21.2-9.5-21.2-21.2s9.5-21.2,21.2-21.2s21.2,9.5,21.2,21.2
		S405.9,227,394.2,227z"/>
	<circle cx="300" cy="300" r="58.8"/>
	<path d="M300,2.5C135.7,2.5,2.5,135.7,2.5,300S135.7,597.5,300,597.5S597.5,464.3,597.5,300S464.3,2.5,300,2.5z M475.5,372.9
		c-0.9,18.8-3.9,31.6-8.2,42.8c-4.6,11.6-10.6,21.5-20.4,31.3c-9.8,9.8-19.6,15.9-31.2,20.4c-11.3,4.4-24.1,7.3-42.9,8.2
		c-18.9,0.9-24.9,1.1-72.8,1.1c-48,0-54-0.2-72.8-1.1c-18.7-0.9-31.6-3.8-42.8-8.2c-11.6-4.5-21.5-10.6-31.3-20.4
		c-9.9-9.8-15.9-19.7-20.4-31.3c-4.4-11.2-7.3-24-8.2-42.8c-0.9-18.9-1.1-24.9-1.1-72.8c0-48,0.3-54,1.1-72.8
		c0.8-18.7,3.8-31.6,8.2-42.8c4.6-11.6,10.6-21.5,20.4-31.3c9.8-9.9,19.7-15.9,31.3-20.4c11.2-4.4,24-7.3,42.8-8.2
		c18.8-0.9,24.9-1.1,72.8-1.1c47.9,0,53.9,0.2,72.7,1.1c18.8,0.9,31.6,3.8,42.9,8.2c11.7,4.6,21.5,10.6,31.3,20.4
		s15.9,19.7,20.4,31.3c4.3,11.2,7.3,24,8.2,42.8c0.9,18.9,1.1,24.9,1.1,72.8C476.6,348.1,476.3,354.1,475.5,372.9z"/>
</g>
</svg>
