<svg xmlns="http://www.w3.org/2000/svg" viewBox="0 0 245.86 262.25"><defs><style>.cls-1{fill:#000;}</style></defs><g id="Layer_2" data-name="Layer 2"><g id="Layer_4" data-name="Layer 4"><polygon class="cls-1" points="147.52 163.91 131.13 196.69 0 196.69 98.34 0 131.13 0 49.17 163.91 147.52 163.91"/><polygon class="cls-1" points="213.08 98.34 229.47 65.56 131.13 65.56 98.34 131.13 81.95 163.91 65.56 196.69 32.78 262.25 65.56 262.25 98.34 196.69 114.74 163.91 131.13 131.13 147.52 98.34 213.08 98.34"/><polygon class="cls-1" points="213.08 163.91 245.86 98.34 213.08 98.34 180.3 163.91 213.08 163.91"/><polygon class="cls-1" points="180.3 163.91 163.91 131.13 131.13 131.13 147.52 163.91 163.91 196.69 196.69 262.25 229.47 262.25 196.69 196.69 180.3 163.91"/></g></g></svg>